<svg width="27" height="30" viewBox="0 0 27 30" fill="none" xmlns="http://www.w3.org/2000/svg">
<path d="M20.59 11.429C20.59 12.297 20.352 13.074 19.876 13.76C19.4 14.432 18.749 14.992 17.923 15.44C18.455 15.804 18.875 16.252 19.183 16.784C19.505 17.302 19.666 17.876 19.666 18.506C19.666 19.262 19.435 20.011 18.973 20.753C18.525 21.481 17.923 22.132 17.167 22.706C16.411 23.266 15.55 23.721 14.584 24.071C13.618 24.421 12.631 24.596 11.623 24.596C10.531 24.596 9.572 24.386 8.746 23.966C7.934 23.56 7.297 22.979 6.835 22.223C6.975 21.803 7.157 21.285 7.381 20.669C7.619 20.039 7.878 19.381 8.158 18.695C8.438 17.995 8.718 17.302 8.998 16.616C9.292 15.93 9.565 15.314 9.817 14.768C10.349 13.578 10.825 12.591 11.245 11.807C11.665 11.023 12.05 10.4 12.4 9.938C11.63 10.176 10.93 10.449 10.3 10.757C9.67 11.051 9.208 11.338 8.914 11.618C8.788 11.534 8.655 11.408 8.515 11.24C8.389 11.072 8.263 10.89 8.137 10.694C8.025 10.484 7.927 10.274 7.843 10.064C7.773 9.854 7.731 9.665 7.717 9.497C8.081 9.245 8.55 9.007 9.124 8.783C9.712 8.545 10.349 8.342 11.035 8.174C11.721 8.006 12.421 7.873 13.135 7.775C13.863 7.677 14.556 7.628 15.214 7.628C16.894 7.628 18.21 7.964 19.162 8.636C20.114 9.308 20.59 10.239 20.59 11.429ZM12.589 16.448C12.323 16.322 12.078 16.133 11.854 15.881C11.532 16.595 11.224 17.295 10.93 17.981C10.65 18.667 10.398 19.304 10.174 19.892C9.95 20.48 9.768 20.991 9.628 21.425C9.488 21.859 9.411 22.174 9.397 22.37C9.593 22.482 9.824 22.566 10.09 22.622C10.37 22.678 10.713 22.706 11.119 22.706C12.071 22.706 12.981 22.573 13.849 22.307C14.717 22.041 15.48 21.684 16.138 21.236C16.796 20.774 17.321 20.249 17.713 19.661C18.105 19.073 18.301 18.457 18.301 17.813C18.301 16.889 17.902 16.224 17.104 15.818C16.012 16.266 14.78 16.49 13.408 16.49C13.212 16.49 13.058 16.49 12.946 16.49C12.848 16.49 12.729 16.476 12.589 16.448ZM16.663 9.161C16.369 9.161 16.054 9.182 15.718 9.224C15.396 9.252 15.053 9.301 14.689 9.371C14.745 9.427 14.787 9.49 14.815 9.56C14.857 9.616 14.892 9.679 14.92 9.749C14.794 9.917 14.64 10.162 14.458 10.484C14.276 10.806 14.073 11.184 13.849 11.618C13.625 12.038 13.387 12.507 13.135 13.025C12.897 13.543 12.652 14.075 12.4 14.621C12.638 14.565 12.925 14.523 13.261 14.495C13.611 14.453 13.954 14.432 14.29 14.432C14.472 14.432 14.647 14.439 14.815 14.453C14.997 14.467 15.172 14.488 15.34 14.516C16.012 14.404 16.614 14.243 17.146 14.033C17.692 13.809 18.161 13.557 18.553 13.277C18.945 12.983 19.246 12.661 19.456 12.311C19.666 11.961 19.771 11.59 19.771 11.198C19.771 10.526 19.505 10.022 18.973 9.686C18.441 9.336 17.671 9.161 16.663 9.161Z" fill="#222222"/>
</svg>
